<svg width="50" height="51" viewBox="0 0 50 51" fill="none" xmlns="http://www.w3.org/2000/svg">
<g clip-path="url(#clip0_175_392)">
<path d="M50 25.4555C50 22.3975 49.4499 19.4681 48.445 16.7599L25 15.6729L1.55498 16.7598C0.550098 19.4681 0 22.3975 0 25.4555C0 28.5135 0.550098 31.4429 1.55498 34.1511L25 35.2381L48.445 34.1512C49.4499 31.4429 50 28.5135 50 25.4555Z" fill="#F0F0F0"/>
<path d="M24.9997 50.4548C35.7488 50.4548 44.9124 43.6704 48.4447 34.1504H1.55469C5.08701 43.6704 14.2506 50.4548 24.9997 50.4548Z" fill="#0052B4"/>
<path d="M1.55469 16.7595H48.4448C44.9124 7.23945 35.7488 0.455078 24.9997 0.455078C14.2506 0.455078 5.08701 7.23945 1.55469 16.7595V16.7595Z" fill="#D80027"/>
<path d="M31.5217 17.8461H27.1738L27.8985 12.4112L30.797 10.2373L33.6955 12.4112V16.7591L31.5217 17.8461Z" fill="#338AF3"/>
<path d="M18.4785 17.8461H22.8264L22.1017 12.4112L19.2031 10.2373L16.3047 12.4112V16.7591L18.4785 17.8461Z" fill="#338AF3"/>
<path d="M27.8988 17.8461H22.1016V12.4112L25.0002 10.2373L27.8988 12.4112V17.8461Z" fill="#0052B4"/>
<path d="M16.3047 16.7598V28.7162C16.3047 31.5632 17.6799 34.095 19.801 35.6822L21.3228 35.3015L23.2431 37.2333C23.8109 37.3503 24.3985 37.4119 25.0004 37.4119C25.599 37.4119 26.1837 37.3511 26.7485 37.2353L28.9406 35.4101L30.1996 35.6787C32.3198 34.0916 33.696 31.5624 33.696 28.7162V16.7598H16.3047Z" fill="#F0F0F0"/>
<path d="M16.3047 16.7598H19.7829V20.238H16.3047V16.7598Z" fill="#D80027"/>
<path d="M23.2607 16.7598H26.739V20.238H23.2607V16.7598Z" fill="#D80027"/>
<path d="M30.2178 16.7598H33.696V20.238H30.2178V16.7598Z" fill="#D80027"/>
<path d="M19.7832 20.2383H23.2614V23.7165H19.7832V20.2383Z" fill="#D80027"/>
<path d="M26.7393 20.2383H30.2175V23.7165H26.7393V20.2383Z" fill="#D80027"/>
<path d="M16.3047 23.7148H19.7829V27.1931H16.3047V23.7148Z" fill="#D80027"/>
<path d="M19.7832 27.1934H23.2614V30.6716H19.7832V27.1934Z" fill="#D80027"/>
<path d="M23.2607 23.7148H26.739V27.1931H23.2607V23.7148Z" fill="#D80027"/>
<path d="M30.2178 23.7148H33.696V27.1931H30.2178V23.7148Z" fill="#D80027"/>
<path d="M26.7393 27.1934H30.2175V30.6716H26.7393V27.1934Z" fill="#D80027"/>
<path d="M23.2607 30.6719H26.739V34.1501H23.2607V30.6719Z" fill="#D80027"/>
<path d="M19.7831 30.6719H16.5293C16.8277 31.9648 17.4145 33.1479 18.2189 34.1501H19.7831V30.6719Z" fill="#D80027"/>
<path d="M30.2178 34.1501H31.7818C32.5865 33.148 33.173 31.9647 33.4715 30.6719H30.2178V34.1501Z" fill="#D80027"/>
<path d="M19.7832 34.1504V35.6681C20.7948 36.4293 21.977 36.9751 23.2614 37.237V34.1504H19.7832Z" fill="#D80027"/>
<path d="M26.7393 34.1504V37.237C28.0237 36.9753 29.2059 36.4293 30.2175 35.6681V34.1504H26.7393Z" fill="#D80027"/>
</g>
<defs>
<clipPath id="clip0_175_392">
<rect width="50" height="50" fill="white" transform="translate(0 0.455078)"/>
</clipPath>
</defs>
</svg>
